<svg width="32" height="32" viewBox="0 0 32 32" fill="none" xmlns="http://www.w3.org/2000/svg">
  <!-- Definición de gradientes optimizados para favicon -->
  <defs>
    <linearGradient id="hex1" x1="0%" y1="0%" x2="100%" y2="100%">
      <stop offset="0%" style="stop-color:#3B82F6;stop-opacity:1" />
      <stop offset="100%" style="stop-color:#6366F1;stop-opacity:1" />
    </linearGradient>
    <linearGradient id="hex2" x1="0%" y1="0%" x2="100%" y2="100%">
      <stop offset="0%" style="stop-color:#6366F1;stop-opacity:1" />
      <stop offset="100%" style="stop-color:#8B5CF6;stop-opacity:1" />
    </linearGradient>
    <linearGradient id="hex3" x1="0%" y1="0%" x2="100%" y2="100%">
      <stop offset="0%" style="stop-color:#8B5CF6;stop-opacity:1" />
      <stop offset="100%" style="stop-color:#D946EF;stop-opacity:1" />
    </linearGradient>
  </defs>
  
  <!-- Fondo blanco para mejor contraste -->
  <rect width="32" height="32" fill="#ffffff" rx="2"/>
  
  <!-- Grupo de hexágonos más grandes para mejor visibilidad -->
  <g transform="translate(16, 16) scale(1.5)">
    <!-- Hexágono 1 (superior) -->
    <g transform="translate(0, -4.5)">
      <polygon points="0,-4.5 4,-2.2 4,2.2 0,4.5 -4,2.2 -4,-2.2" fill="url(#hex1)" stroke="#ffffff" stroke-width="0.4"/>
    </g>
    
    <!-- Hexágono 2 (inferior izquierdo) -->
    <g transform="translate(-3.8, 2.2)">
      <polygon points="0,-4.5 4,-2.2 4,2.2 0,4.5 -4,2.2 -4,-2.2" fill="url(#hex2)" stroke="#ffffff" stroke-width="0.4"/>
    </g>
    
    <!-- Hexágono 3 (inferior derecho) -->
    <g transform="translate(3.8, 2.2)">
      <polygon points="0,-4.5 4,-2.2 4,2.2 0,4.5 -4,2.2 -4,-2.2" fill="url(#hex3)" stroke="#ffffff" stroke-width="0.4"/>
    </g>
  </g>
</svg>